<svg width="16" height="16" viewBox="0 0 16 16" fill="none" xmlns="http://www.w3.org/2000/svg">
<g clip-path="url(#clip0_4267_57)">
<path d="M7.98373 1.45152C9.27565 1.45152 10.5386 1.83462 11.6128 2.55238C12.687 3.27013 13.5242 4.29031 14.0186 5.48389C14.513 6.67747 14.6424 7.99086 14.3903 9.25796C14.1383 10.5251 13.5161 11.689 12.6026 12.6025C11.6891 13.516 10.5252 14.1382 9.25807 14.3902C7.99097 14.6422 6.67759 14.5129 5.484 14.0185C4.29042 13.5241 3.27025 12.6868 2.55249 11.6126C1.83473 10.5385 1.45163 9.27554 1.45163 7.98361C1.45832 6.25326 2.14867 4.59568 3.37223 3.37212C4.59579 2.14856 6.25337 1.45821 7.98373 1.45152ZM7.98373 -5.52587e-05C6.40611 0.00639867 4.86578 0.480113 3.55717 1.36128C2.24857 2.24245 1.23037 3.49158 0.631106 4.95096C0.031846 6.41034 -0.121605 8.01455 0.190125 9.56108C0.501855 11.1076 1.26479 12.5271 2.38262 13.6404C3.50044 14.7536 4.92304 15.5108 6.47082 15.8162C8.01861 16.1216 9.62218 15.9616 11.0791 15.3564C12.536 14.7512 13.781 13.7279 14.6568 12.4157C15.5326 11.1035 16 9.56124 16.0001 7.98361C16.0001 6.93243 15.7925 5.89159 15.3892 4.92083C14.986 3.95008 14.395 3.06851 13.6502 2.32673C12.9053 1.58495 12.0214 0.997557 11.049 0.598266C10.0766 0.198974 9.0349 -0.00435556 7.98373 -5.52587e-05Z" fill="#F2F2F2"/>
<path d="M11.707 7.38117H8.4954V4.16956H7.41397V7.38117H4.19873V8.46259H7.41397V11.6742H8.4954V8.46259H11.707V7.38117Z" fill="#F2F2F2"/>
</g>
<defs>
<clipPath id="clip0_4267_57">
<rect width="16" height="16" fill="white"/>
</clipPath>
</defs>
</svg>
